<svg width="237" height="230" viewBox="0 0 237 230" fill="none" xmlns="http://www.w3.org/2000/svg">
<path opacity="0.8" d="M47.9999 40.202C62.0196 8.3312 98.4181 -9.45691 130 5.20195C146.68 12.9439 145.749 30.7114 161.5 40.202C182.456 52.829 200.772 36.6696 219 52.99C235.01 67.3248 247 96.1777 224 112.702C201 129.226 211.344 172.001 171.5 176.202C140.82 179.437 117.333 167.202 99.4999 143.702C81.6666 120.202 47.1503 160.484 36.4999 138.202C28.5962 121.666 45.6104 110.873 47.9999 92.702C50.673 72.3744 39.7445 58.969 47.9999 40.202Z" fill="#E31D24"/>
<path opacity="0.8" d="M219.5 176.202C223.764 139.702 179.199 157.202 173.5 135.702C162.5 94.202 126 88.702 109 115.202C92 141.702 119.453 146.137 117.5 168.202C115.547 190.266 80.5838 152.967 70 168.202C62.6471 178.786 65.8261 189.009 70 201.202C79.8892 230.089 112.514 230.901 143 229.202C161.62 228.164 173.061 225.163 188.5 214.702L188.927 214.412C204.708 203.721 217.28 195.203 219.5 176.202Z" fill="#7EB3C1"/>
<path opacity="0.8" d="M6.5 192.702C0.60692 187.528 0 173.702 0 173.702C0 173.702 23.3272 170.893 27 181.202C28.5073 185.432 29.3884 188.899 27 192.702C25.0407 195.822 22.6259 197.049 19 197.702C13.8256 198.633 10.4509 196.171 6.5 192.702Z" fill="#E31D24"/>
</svg>
