<svg width="325" height="273" viewBox="0 0 325 273" fill="none" xmlns="http://www.w3.org/2000/svg">
<path opacity="0.8" d="M2.41929 175.851C10.8935 212.476 45.1563 216.065 73.4193 240.851C84.6612 250.71 88.9523 259.354 102.419 265.851C128.708 278.535 150.72 272.717 176.919 259.851C197.506 249.742 217.172 242.621 219.919 219.851C222.2 200.949 197.994 194.869 198.919 175.851C199.76 158.574 216.888 153.882 219.919 136.851C223.443 117.058 221.928 102.475 209.919 86.3513C193.541 64.3599 169.822 70.6529 142.919 65.3513C116.191 60.0841 99.5864 51.7731 73.4193 59.3513C41.5504 68.5808 23.9989 86.0791 10.4193 116.351C0.823379 137.743 -2.86587 153.01 2.41929 175.851Z" fill="#0081EC"/>
<path opacity="0.8" d="M150 113.805C132.672 94.7242 139.16 71.1895 150 47.8052C159.176 28.0116 170.29 18.1594 190 8.80522C216.108 -3.58533 237.306 -2.26631 264 8.80522C285.617 17.7712 297.758 27.561 309.5 47.8052C321.548 68.5781 329.961 86.2333 320.5 108.305C310.394 131.882 289.137 146.916 264 141.805C244.899 137.921 244.769 116.318 227 108.305C199.518 95.9124 170.267 136.123 150 113.805Z" fill="#1BB399"/>
<path opacity="0.5" d="M268.419 270.351C285.419 272.351 297.419 257.851 297.419 257.851C297.419 257.851 288.372 243.751 276.419 241.351C269.719 240.006 260.665 240.971 255.419 245.351C250.363 249.574 249.602 254.52 251.419 260.851C253.361 267.621 261.424 269.528 268.419 270.351Z" fill="#0081EC"/>
</svg>
