<svg width="336" height="260" viewBox="0 0 336 260" fill="none" xmlns="http://www.w3.org/2000/svg">
<path opacity="0.8" d="M8.49287 152.986C23.4432 187.722 57.043 186.561 87.4929 208.986C109.379 225.104 115.956 253.779 142.993 250.986C171.022 248.091 191.57 235.729 209.493 213.986C223.073 197.511 217.816 173.817 234.493 160.486C269.228 132.72 324.645 168.962 333.993 125.486C340.942 93.1652 318.466 71.7867 291.993 51.986C265.482 32.1573 242.517 30.1596 209.493 32.486C173.533 35.0192 160.457 70.9585 124.493 68.486C93.4783 66.3537 84.3769 28.9323 53.4929 32.486C3.58964 38.228 -11.3661 106.846 8.49287 152.986Z" fill="#7EB3C1"/>
<path opacity="0.8" d="M159.493 179.486C172.177 211.572 172.511 235.369 203.993 249.486C227.338 259.954 257.881 261.881 282.993 256.986C306.174 252.468 327.677 237.369 330.993 213.986C333.966 193.016 299.495 182.095 291.493 162.486C281.545 138.109 290.144 125.125 296.493 102.486C304.067 75.4775 339.212 61.5487 330.993 34.486C321.628 3.65322 289.103 -4.27301 257.493 1.98605C226.697 8.08388 221.348 35.8261 203.993 61.986C176.867 102.873 141.454 133.855 159.493 179.486Z" fill="#1BB399"/>
<path opacity="0.8" d="M13.1214 219.221C9.8792 226.597 11.5595 233.856 17.4372 239.386C21.2873 243.008 24.8053 245.061 30.0527 244.344C37.158 243.374 40.5142 237.446 42.0042 230.46C44.0292 220.967 39.7063 209.983 30.0527 208.643C22.3216 207.57 16.2513 212.101 13.1214 219.221Z" fill="#1BB399"/>
</svg>
