<svg width="418" height="352" viewBox="0 0 418 352" fill="none" xmlns="http://www.w3.org/2000/svg">
<path opacity="0.8" d="M354 190.63C347.059 154.13 338.864 158.503 314 130.01C296.129 109.531 300.5 61.6296 249.5 49.1299C222.317 42.4674 213.849 43.9792 185.579 49.0263L185 49.1296C163.982 52.8817 124.671 61.6015 105.5 71.0001C65.5712 90.5756 40.1246 102.192 21.5743 142.607C7.7836 172.653 25.0899 198.395 46.6412 223.464C68.2229 248.569 90.2086 255.498 122.952 260.386C158.606 265.709 179.162 233.459 213.735 243.67C243.549 252.475 242.58 278.903 273.5 282.13C323.461 287.343 360.941 227.13 354 190.63Z" fill="#0081EC"/>
<path opacity="0.8" d="M140.643 166.536C137.359 200.881 148.306 227.509 169.933 254.391C185.97 274.326 209.742 315.386 234.335 322.439C257.037 328.949 283.054 325.272 296.634 305.95C308.812 288.622 283.07 263.229 284.854 242.124C287.071 215.889 300.632 208.232 316.576 190.951C335.597 170.335 388.944 171.825 393.921 143.983C399.592 112.262 375.646 72.2913 344.645 63.501C314.442 54.9371 291.298 84.0724 263.95 99.4873C221.205 123.58 145.313 117.691 140.643 166.536Z" fill="#E31D24"/>
<path opacity="0.8" d="M130.751 280.299C126.079 278.48 121.611 279.718 118.33 283.52C116.181 286.01 114.998 288.252 115.583 291.495C116.376 295.887 120.151 297.816 124.534 298.556C130.49 299.561 137.204 296.581 137.779 290.543C138.24 285.708 135.261 282.055 130.751 280.299Z" fill="#E31D24"/>
</svg>
