<svg width="294" height="318" viewBox="0 0 294 318" fill="none" xmlns="http://www.w3.org/2000/svg">
<path opacity="0.8" d="M57.5 291.5C35.3721 280.633 18.2127 273.562 9.50003 250.5C-0.149632 224.958 32.6316 207.732 23.5 182C18.4971 167.903 2.54131 165.879 1.00003 151C-2.02346 121.812 65.2177 157.794 73 129.5C75.4339 120.651 69.4098 114.446 73 106C81.8802 85.1101 109.787 123.785 130.5 114.5C153.397 104.237 137.957 65.6797 162 58.5002C183.891 51.9633 193.493 77.081 216 81.0002C233.505 84.0484 245.952 72.3991 261.5 81.0002C291.276 97.4717 242.167 134.638 251 167.5C257.155 190.399 278.589 196.468 281.5 220C285.227 250.127 273.313 270.917 251 291.5C229.934 310.933 210.336 320.801 182 316.5C166.613 314.165 160.289 305.35 145.5 300.5C112.675 289.736 88.5077 306.729 57.5 291.5Z" fill="#E31D24"/>
<path opacity="0.8" d="M105 106C102.108 78.5364 98.0934 60.172 110.5 35.5001C116.571 23.4279 119.935 14.9885 131.5 8.00012C144.622 0.0710912 155.761 -0.720539 170.5 3.50012C185.451 7.78162 193.719 15.0339 201.5 28.5001C214.818 51.5494 177.065 73.9644 192 96.0001C206.25 117.026 233.758 99.3403 254.5 114C275.428 128.791 289.525 142.046 292.5 167.5C295.362 191.993 290.102 212.217 270 226.5C243.084 245.624 217.975 220.707 187.5 208C159.742 196.426 139.145 192.209 122 167.5C107.795 147.028 107.61 130.781 105 106Z" fill="#7EB3C1"/>
<path opacity="0.8" d="M46 56C36.4472 53.1268 29.5 36.5 29.5 36.5C29.5 36.5 53.1151 26.6771 59.5 36.5C63.6502 42.885 65.7612 51.6654 59.5 56C55.1653 59.001 51.0487 57.5185 46 56Z" fill="#E31D24"/>
</svg>
