<svg width="147" height="18" viewBox="0 0 147 18" fill="none" xmlns="http://www.w3.org/2000/svg">
<path d="M9 0L11.0206 6.21885H17.5595L12.2694 10.0623L14.2901 16.2812L9 12.4377L3.70993 16.2812L5.73056 10.0623L0.440492 6.21885H6.97937L9 0Z" fill="#A4A4A4"/>
<path d="M42 0L44.0206 6.21885H50.5595L45.2694 10.0623L47.2901 16.2812L42 12.4377L36.7099 16.2812L38.7306 10.0623L33.4405 6.21885H39.9794L42 0Z" fill="#A4A4A4"/>
<path d="M74 0L76.0206 6.21885H82.5595L77.2694 10.0623L79.2901 16.2812L74 12.4377L68.7099 16.2812L70.7306 10.0623L65.4405 6.21885H71.9794L74 0Z" fill="#A4A4A4"/>
<path d="M106 0L108.021 6.21885H114.56L109.269 10.0623L111.29 16.2812L106 12.4377L100.71 16.2812L102.731 10.0623L97.4405 6.21885H103.979L106 0Z" fill="#A4A4A4"/>
<path d="M138 0L140.021 6.21885H146.56L141.269 10.0623L143.29 16.2812L138 12.4377L132.71 16.2812L134.731 10.0623L129.44 6.21885H135.979L138 0Z" fill="#A4A4A4"/>
</svg>
