<svg width="24" height="24" viewBox="0 0 24 24" fill="none" xmlns="http://www.w3.org/2000/svg">
<path d="M11 9.62241C10.5504 9.62241 10.1108 9.75479 9.73698 10.0028C9.36314 10.2508 9.07176 10.6034 8.89969 11.0158C8.72763 11.4283 8.68261 11.8822 8.77033 12.32C8.85804 12.7579 9.07456 13.1601 9.39249 13.4758C9.71042 13.7914 10.1155 14.0064 10.5565 14.0935C10.9975 14.1806 11.4545 14.1359 11.8699 13.9651C12.2853 13.7942 12.6404 13.5049 12.8902 13.1337C13.14 12.7625 13.2733 12.3261 13.2733 11.8796C13.2733 11.5832 13.2145 11.2897 13.1003 11.0158C12.986 10.742 12.8186 10.4931 12.6075 10.2835C12.3964 10.0739 12.1458 9.90767 11.8699 9.79423C11.5941 9.68079 11.2985 9.62241 11 9.62241ZM20.1025 7.39248C20.0977 6.6896 19.9673 5.99314 19.7175 5.33547C19.5335 4.85423 19.2488 4.41719 18.8822 4.0532C18.5156 3.68922 18.0755 3.40655 17.5908 3.22386C16.9285 2.97581 16.227 2.84638 15.5191 2.84159C14.3366 2.77788 13.9883 2.77788 11 2.77788C8.01165 2.77788 7.66331 2.77788 6.48081 2.84159C5.77292 2.84638 5.0715 2.97581 4.40915 3.22386C3.92447 3.40655 3.48432 3.68922 3.11773 4.0532C2.75115 4.41719 2.46647 4.85423 2.28248 5.33547C2.03265 5.99314 1.9023 6.6896 1.89748 7.39248C1.83331 8.5666 1.83331 8.91247 1.83331 11.8796C1.83331 14.8468 1.83331 15.1927 1.89748 16.3668C1.90735 17.0722 2.03752 17.7708 2.28248 18.4329C2.46566 18.912 2.7501 19.3465 3.11665 19.7072C3.48166 20.0733 3.92275 20.356 4.40915 20.5354C5.0715 20.7835 5.77292 20.9129 6.48081 20.9177C7.66331 20.9814 8.01165 20.9814 11 20.9814C13.9883 20.9814 14.3366 20.9814 15.5191 20.9177C16.227 20.9129 16.9285 20.7835 17.5908 20.5354C18.0772 20.356 18.5183 20.0733 18.8833 19.7072C19.2499 19.3465 19.5343 18.912 19.7175 18.4329C19.9671 17.772 20.0974 17.0726 20.1025 16.3668C20.1666 15.1927 20.1666 14.8468 20.1666 11.8796C20.1666 8.91247 20.1666 8.5666 20.1025 7.39248ZM17.7741 14.6739C17.7447 15.2356 17.624 15.7888 17.4166 16.3122C17.2387 16.7488 16.9741 17.1454 16.6387 17.4785C16.3033 17.8115 15.9039 18.0742 15.4641 18.2509C14.932 18.4453 14.3717 18.5529 13.805 18.5694H8.19498C7.62823 18.5529 7.06793 18.4453 6.53581 18.2509C6.08124 18.0832 5.67073 17.8156 5.33498 17.4681C5.00284 17.1416 4.74634 16.7472 4.58331 16.3122C4.38674 15.7844 4.28137 15.2274 4.27165 14.6648V9.09451C4.28137 8.53186 4.38674 7.97488 4.58331 7.44709C4.75224 6.99573 5.02173 6.58813 5.37165 6.25475C5.70195 5.92675 6.0988 5.67233 6.53581 5.50841C7.06793 5.314 7.62823 5.20642 8.19498 5.18985H13.805C14.3717 5.20642 14.932 5.314 15.4641 5.50841C15.9187 5.67614 16.3292 5.94372 16.665 6.29116C16.9971 6.61769 17.2536 7.01214 17.4166 7.44709C17.6124 7.97543 17.7208 8.53177 17.7375 9.09451V11.8796C17.7375 13.7546 17.8016 13.9457 17.7741 14.6648V14.6739ZM16.3075 7.90217C16.1983 7.60817 16.0263 7.34118 15.8031 7.11962C15.58 6.89805 15.3111 6.72719 15.015 6.61882C14.6084 6.47889 14.1802 6.41111 13.75 6.41859H8.24998C7.81756 6.42278 7.38929 6.5029 6.98498 6.65523C6.69341 6.75868 6.42736 6.92256 6.20451 7.13599C5.98166 7.34941 5.80712 7.60749 5.69248 7.89307C5.55936 8.29843 5.49432 8.72278 5.49998 9.14912V14.6102C5.50907 15.0391 5.5896 15.4635 5.73831 15.8662C5.84745 16.1602 6.01953 16.4272 6.24268 16.6488C6.46582 16.8703 6.73471 17.0412 7.03081 17.1496C7.42192 17.2924 7.83349 17.3723 8.24998 17.3862H13.75C14.1824 17.382 14.6107 17.3019 15.015 17.1496C15.3111 17.0412 15.58 16.8703 15.8031 16.6488C16.0263 16.4272 16.1983 16.1602 16.3075 15.8662C16.4609 15.4648 16.5416 15.0395 16.5458 14.6102V9.14912C16.5461 8.71933 16.4652 8.2933 16.3075 7.89307V7.90217ZM11 15.3565C10.5406 15.3565 10.0857 15.2665 9.66134 15.0917C9.23701 14.9168 8.85159 14.6606 8.52716 14.3376C8.20273 14.0146 7.94567 13.6313 7.77069 13.2095C7.59572 12.7877 7.50627 12.3358 7.50748 11.8796C7.50748 11.1916 7.71308 10.519 8.09826 9.94706C8.48343 9.37509 9.03086 8.92946 9.67124 8.66657C10.3116 8.40368 11.0162 8.33536 11.6957 8.47026C12.3752 8.60515 12.9991 8.9372 13.4884 9.42436C13.9778 9.91152 14.3106 10.5319 14.4446 11.2069C14.5787 11.882 14.5081 12.5814 14.2416 13.2165C13.9752 13.8517 13.5249 14.394 12.9479 14.775C12.3708 15.1559 11.6929 15.3583 11 15.3565ZM14.6666 9.0854C14.464 9.06411 14.2765 8.9691 14.1402 8.8187C14.0039 8.66829 13.9285 8.47312 13.9285 8.2708C13.9285 8.06847 14.0039 7.8733 14.1402 7.7229C14.2765 7.57249 14.464 7.47748 14.6666 7.45619C14.8693 7.47748 15.0568 7.57249 15.1931 7.7229C15.3294 7.8733 15.4048 8.06847 15.4048 8.2708C15.4048 8.47312 15.3294 8.66829 15.1931 8.8187C15.0568 8.9691 14.8693 9.06411 14.6666 9.0854Z" fill="white"/>
</svg>
