<svg width="24" height="24" viewBox="0 1 24 24" fill="none" xmlns="http://www.w3.org/2000/svg">
<path d="M4.26 5.19444C3 6.45743 3 8.47703 3 12.5222V13.2371C3 17.2763 3 19.2959 4.26 20.5648C5.532 21.8159 7.566 21.8159 11.64 21.8159H12.36C16.428 21.8159 18.462 21.8159 19.74 20.5648C21 19.3019 21 17.2823 21 13.2371V12.5222C21 8.48299 21 6.46339 19.74 5.19444C18.468 3.94336 16.434 3.94336 12.36 3.94336H11.64C7.572 3.94336 5.538 3.94336 4.26 5.19444ZM6.036 9.38258H8.1C8.166 12.7903 9.678 14.232 10.878 14.5299V9.38258H12.816V12.3196C13.998 12.1945 15.246 10.8541 15.666 9.37662H17.598C17.4405 10.1414 17.1259 10.8658 16.6737 11.5044C16.2215 12.143 15.6415 12.6822 14.97 13.0882C15.7194 13.4584 16.3813 13.9822 16.9118 14.6251C17.4424 15.2679 17.8297 16.0152 18.048 16.8176H15.918C15.462 15.4056 14.322 14.3094 12.816 14.1605V16.8176H12.576C8.472 16.8176 6.132 14.0294 6.036 9.38258Z" fill="white"/>
</svg>
