<svg width="24" height="24" viewBox="0 0 24 24" fill="none" xmlns="http://www.w3.org/2000/svg">
<path d="M20.1575 6.91645C20.1498 6.52596 20.1183 6.1363 20.0631 5.74961C19.9972 5.40565 19.8853 5.07199 19.7303 4.75751C19.391 4.09245 18.8471 3.55205 18.1775 3.21476C17.8628 3.06159 17.5289 2.95079 17.1847 2.88528C16.7923 2.82929 16.3968 2.79737 16.0004 2.78971C15.8326 2.78334 15.6154 2.78061 15.5146 2.78061L6.48723 2.77788C6.3864 2.77788 6.16915 2.78061 6.0014 2.78698C5.60812 2.7945 5.21567 2.82581 4.82623 2.88073C4.47982 2.94611 4.14379 3.05723 3.82706 3.21112C3.15729 3.54807 2.61306 4.08813 2.27331 4.75296C2.11909 5.06544 2.0075 5.39693 1.94148 5.73868C1.88483 6.12832 1.85238 6.52104 1.84431 6.91463C1.83881 7.08119 1.83515 7.29691 1.83515 7.39703L1.83331 16.3604C1.83331 16.4606 1.83606 16.6763 1.84248 16.8428C1.85006 17.2333 1.88159 17.623 1.9369 18.0097C2.00276 18.3536 2.11467 18.6873 2.26965 19.0018C2.609 19.6668 3.15291 20.2072 3.82248 20.5445C4.13719 20.6976 4.47105 20.8084 4.81523 20.874C5.20765 20.93 5.60318 20.9619 5.99956 20.9696C6.16731 20.976 6.38456 20.9787 6.4854 20.9787L15.5127 20.9805C15.6136 20.9805 15.8308 20.9778 15.9986 20.9714C16.3918 20.9639 16.7843 20.9325 17.1737 20.8777C17.5201 20.8122 17.8562 20.7011 18.1729 20.5473C18.843 20.2105 19.3876 19.6704 19.7276 19.0054C19.8818 18.693 19.9934 18.3615 20.0594 18.0197C20.1161 17.6301 20.1485 17.2373 20.1566 16.8438C20.1621 16.6772 20.1657 16.4615 20.1657 16.3614L20.1666 7.39885C20.1666 7.29873 20.1639 7.08301 20.1575 6.91645ZM11.1989 18.2118H11.1961C10.105 18.2115 9.0313 17.9399 8.07306 17.4217L4.60806 18.3237L5.53573 14.9624C4.81748 13.7249 4.53049 12.2866 4.71925 10.8706C4.90802 9.45463 5.562 8.14003 6.57979 7.13065C7.59758 6.12126 8.92233 5.47348 10.3486 5.28773C11.7749 5.10199 13.2231 5.38866 14.4686 6.10329C15.7142 6.81793 16.6874 7.92061 17.2376 9.24037C17.7877 10.5601 17.884 12.0232 17.5114 13.4028C17.1389 14.7824 16.3183 16.0015 15.177 16.8709C14.0357 17.7404 12.6374 18.2117 11.1989 18.2118Z" fill="white"/>
<path d="M11.2016 6.32847C10.231 6.32819 9.27794 6.58612 8.44168 7.07544C7.60541 7.56476 6.91644 8.2676 6.44641 9.11087C5.97639 9.95414 5.74247 10.907 5.769 11.8705C5.79552 12.8339 6.08151 13.7727 6.59722 14.5892L6.72647 14.7931L6.17739 16.7828L8.23347 16.2476L8.43147 16.3641C9.26847 16.8563 10.2234 17.1159 11.1961 17.1159H11.1989C12.6397 17.1161 14.0216 16.5481 15.0406 15.5366C16.0596 14.5252 16.6322 13.1533 16.6324 11.7226C16.6327 10.292 16.0605 8.91989 15.0419 7.90812C14.0233 6.89635 12.6415 6.3278 11.2007 6.32756L11.2016 6.32847ZM14.3953 14.0377C14.2752 14.2347 14.1152 14.4049 13.9256 14.5376C13.736 14.6702 13.5208 14.7625 13.2935 14.8086C12.9503 14.867 12.5982 14.8452 12.265 14.7449C11.949 14.6471 11.6384 14.5329 11.3346 14.4027C10.2068 13.8407 9.24556 12.9973 8.54514 11.9552C8.16305 11.4728 7.93112 10.8901 7.87781 10.2786C7.8734 10.0263 7.92199 9.77574 8.02047 9.54303C8.11895 9.31032 8.26517 9.10053 8.44981 8.92703C8.50437 8.86522 8.57122 8.81528 8.64615 8.78035C8.72108 8.74543 8.80248 8.72626 8.88522 8.72406C8.99339 8.72406 9.10247 8.72406 9.19781 8.72952C9.29864 8.73407 9.43247 8.69129 9.56447 9.00803C9.70197 9.33206 10.0283 10.1303 10.0686 10.2113C10.0945 10.2538 10.1093 10.302 10.1117 10.3515C10.1141 10.4011 10.1041 10.4505 10.0824 10.4953C10.0413 10.5926 9.98632 10.6837 9.91922 10.7656C9.83672 10.8602 9.74781 10.9767 9.67447 11.0496C9.59197 11.1306 9.50764 11.2179 9.60206 11.38C9.84729 11.7969 10.1534 12.1754 10.5105 12.5031C10.8979 12.8451 11.3424 13.1174 11.8241 13.3077C11.9872 13.3896 12.0826 13.3751 12.1779 13.2668C12.2732 13.1584 12.5858 12.7935 12.6949 12.6314C12.804 12.4694 12.9121 12.4967 13.0616 12.5504C13.211 12.6041 14.0149 12.9964 14.1781 13.0783C14.3412 13.1603 14.4503 13.1994 14.4906 13.2668C14.5353 13.5275 14.5022 13.7955 14.3953 14.0377Z" fill="white"/>
</svg>
