<svg width="49" height="49" viewBox="0 0 49 49" fill="none" xmlns="http://www.w3.org/2000/svg">
<path d="M39.8125 45.9375H36.75V41.3438C36.7476 39.3139 35.9402 37.3679 34.5049 35.9326C33.0696 34.4973 31.1236 33.6899 29.0938 33.6875H19.9062C17.8764 33.6899 15.9304 34.4973 14.4951 35.9326C13.0599 37.3679 12.2524 39.3139 12.25 41.3438V45.9375H9.1875V41.3438C9.19074 38.502 10.3211 35.7775 12.3305 33.768C14.34 31.7586 17.0645 30.6282 19.9062 30.625H29.0938C31.9355 30.6282 34.66 31.7586 36.6695 33.768C38.6789 35.7775 39.8093 38.502 39.8125 41.3438V45.9375ZM7.65625 9.1875C7.25014 9.1875 6.86066 9.34883 6.57349 9.63599C6.28633 9.92316 6.125 10.3126 6.125 10.7188V24.5H9.1875V10.7188C9.1875 10.3126 9.02617 9.92316 8.73901 9.63599C8.45184 9.34883 8.06236 9.1875 7.65625 9.1875Z" fill="white"/>
<path d="M6.125 3.0625V6.125H13.7812V16.8438C13.7812 19.6865 14.9105 22.4129 16.9207 24.423C18.9309 26.4332 21.6572 27.5625 24.5 27.5625C27.3428 27.5625 30.0691 26.4332 32.0793 24.423C34.0895 22.4129 35.2188 19.6865 35.2188 16.8438V6.125H42.875V3.0625H6.125ZM16.8438 6.125H32.1562V10.7188H16.8438V6.125ZM24.5 24.5C22.4694 24.5 20.522 23.6934 19.0862 22.2575C17.6504 20.8217 16.8438 18.8743 16.8438 16.8438V13.7812H32.1562V16.8438C32.1562 18.8743 31.3496 20.8217 29.9138 22.2575C28.478 23.6934 26.5306 24.5 24.5 24.5Z" fill="white"/>
</svg>
