<svg width="49" height="49" viewBox="0 0 49 49" fill="none" xmlns="http://www.w3.org/2000/svg">
<path d="M34.0346 26.8072C36.8317 28.7059 38.7917 31.2784 38.7917 34.7084V40.8334H46.9584V34.7084C46.9584 30.2576 39.6696 27.6238 34.0346 26.8072ZM30.625 24.5001C35.1371 24.5001 38.7917 20.8455 38.7917 16.3334C38.7917 11.8213 35.1371 8.16675 30.625 8.16675C29.6654 8.16675 28.7671 8.37091 27.9096 8.65675C29.6665 10.8295 30.625 13.5392 30.625 16.3334C30.625 19.1276 29.6665 21.8373 27.9096 24.0101C28.7671 24.2959 29.6654 24.5001 30.625 24.5001ZM18.375 24.5001C22.8871 24.5001 26.5417 20.8455 26.5417 16.3334C26.5417 11.8213 22.8871 8.16675 18.375 8.16675C13.8629 8.16675 10.2084 11.8213 10.2084 16.3334C10.2084 20.8455 13.8629 24.5001 18.375 24.5001ZM18.375 12.2501C20.6209 12.2501 22.4584 14.0876 22.4584 16.3334C22.4584 18.5792 20.6209 20.4167 18.375 20.4167C16.1292 20.4167 14.2917 18.5792 14.2917 16.3334C14.2917 14.0876 16.1292 12.2501 18.375 12.2501ZM18.375 26.5417C12.9238 26.5417 2.04169 29.2776 2.04169 34.7084V40.8334H34.7084V34.7084C34.7084 29.2776 23.8263 26.5417 18.375 26.5417ZM30.625 36.7501H6.12502V34.7288C6.53335 33.2588 12.8625 30.6251 18.375 30.6251C23.8875 30.6251 30.2167 33.2588 30.625 34.7084V36.7501Z" fill="white"/>
</svg>
