<svg width="403" height="311" viewBox="0 0 403 311" fill="none" xmlns="http://www.w3.org/2000/svg">
<path opacity="0.8" d="M-9.72741e-05 110.5C-0.250857 80.3997 28.814 73.3301 48.9999 51.0001C60.3918 38.3981 64.9292 29.0185 78.9999 19.5001C110.06 -1.51086 140.261 -5.79203 174.5 9.50011C189.654 16.2685 194.004 26.9166 208.5 35.0001C236.46 50.5921 281.129 23.732 288 55.0001C292.042 73.3967 282.853 85.1059 272 100.5C259.195 118.663 247.24 127.465 226 134C206.777 139.915 193.467 127.312 174.5 134C150.15 142.586 151.641 171.341 127.5 180.5C98.5313 191.491 75.9353 184.312 48.9999 169C23.0924 154.272 0.24816 140.3 -9.72741e-05 110.5Z" fill="#7EB3C1"/>
<path opacity="0.8" d="M5.5001 196.5C3.33739 167.702 45.6345 173.075 63.0001 150C70.2694 140.341 70.045 131.621 79.0001 123.5C98.5613 105.761 146.5 119.5 146.5 119.5C146.5 119.5 191.566 130.542 212 150C223.228 160.692 229.398 167.747 235.5 182C242.935 199.367 248.022 212.271 241.5 230C231.671 256.718 181.855 234.14 176 262C174.474 269.261 177.359 273.706 176 281C168.987 318.654 110.648 317.074 79.0001 295.5C57.844 281.078 63.0751 258.322 47.5001 238C33.4736 219.699 7.22689 219.494 5.5001 196.5Z" fill="#0081EC"/>
<path opacity="0.8" d="M275 146.5C276.176 136.925 280.404 129.713 289.5 126.5C301.027 122.428 305.514 138.093 317.5 140.5C337.934 144.604 348.558 122.436 369 126.5C384.109 129.504 402.718 131.098 403 146.5C403.227 158.937 393.083 165.466 381.5 170C367.839 175.348 359.163 163.019 344.5 163.5C327.691 164.052 319.144 179.713 303 175C288.022 170.628 273.097 161.986 275 146.5Z" fill="#7EB3C1"/>
</svg>
