<svg width="53" height="53" viewBox="0 0 53 53" fill="none" xmlns="http://www.w3.org/2000/svg">
<path d="M45.2764 7.61487C42.8346 5.20007 39.9263 3.28545 36.7208 1.98266C33.5154 0.679882 30.0771 0.0150207 26.6065 0.0268582C12.0648 0.0268582 0.213066 11.6305 0.213066 25.8678C0.213066 30.4311 1.43819 34.8639 3.72864 38.7753L0 52.1781L13.9824 48.5797C17.8442 50.6397 22.1854 51.7349 26.6065 51.7349C41.1482 51.7349 53 40.1312 53 25.8939C53 18.9838 50.2568 12.491 45.2764 7.61487ZM26.6065 47.3541C22.6648 47.3541 18.803 46.3111 15.4206 44.3554L14.6216 43.8861L6.31206 46.0243L8.52261 38.0973L7.98995 37.289C5.80003 33.8651 4.63721 29.9076 4.63417 25.8678C4.63417 14.0295 14.4884 4.38149 26.5799 4.38149C32.4392 4.38149 37.9523 6.624 42.0804 10.6918C44.1244 12.6839 45.7443 15.0534 46.8461 17.6629C47.9479 20.2725 48.5097 23.0702 48.499 25.8939C48.5523 37.7322 38.698 47.3541 26.6065 47.3541ZM38.6447 31.2916C37.9789 30.9786 34.7296 29.4141 34.1437 29.1794C33.5312 28.9708 33.105 28.8665 32.6523 29.4923C32.1995 30.1442 30.9477 31.6045 30.5749 32.0217C30.202 32.465 29.8025 32.5171 29.1367 32.1781C28.4708 31.8652 26.3402 31.1612 23.8367 28.9708C21.8658 27.2498 20.5608 25.1377 20.1613 24.4858C19.7884 23.8339 20.108 23.4949 20.4543 23.156C20.7472 22.8691 21.1201 22.3998 21.4397 22.0347C21.7593 21.6696 21.8925 21.3828 22.1055 20.9656C22.3186 20.5223 22.2121 20.1573 22.0523 19.8443C21.8925 19.5314 20.5608 16.3502 20.0281 15.0464C19.4955 13.7948 18.9362 13.9513 18.5367 13.9252H17.2583C16.8055 13.9252 16.1131 14.0816 15.5005 14.7335C14.9146 15.3854 13.21 16.95 13.21 20.1312C13.21 23.3124 15.5804 26.3893 15.9 26.8065C16.2196 27.2498 20.5608 33.7687 27.1658 36.5588C28.7372 37.2368 29.9623 37.6279 30.9211 37.9148C32.4925 38.4102 33.9306 38.332 35.0759 38.1755C36.3543 37.993 38.9909 36.611 39.5236 35.0986C40.0829 33.5862 40.0829 32.3085 39.8965 32.0217C39.71 31.7348 39.3105 31.6045 38.6447 31.2916Z" fill="#0081EC"/>
</svg>
