<svg width="36" height="29" viewBox="0 0 36 29" fill="none" xmlns="http://www.w3.org/2000/svg">
<path d="M10.4962 2.116C8.7202 2.116 7.3402 3.136 6.3562 5.176C5.3722 7.192 4.8802 10.18 4.8802 14.14C4.8802 22.636 6.7642 26.884 10.5322 26.884C12.3562 26.884 13.7602 25.864 14.7442 23.824C15.7522 21.76 16.2562 18.712 16.2562 14.68C16.2562 6.304 14.3362 2.116 10.4962 2.116ZM0.848203 14.464C0.848203 10.048 1.7362 6.664 3.5122 4.312C5.3122 1.936 7.6522 0.747999 10.5322 0.747999C13.4122 0.747999 15.7402 1.936 17.5162 4.312C19.3162 6.688 20.2162 10.096 20.2162 14.536C20.2162 18.952 19.3042 22.348 17.4802 24.724C15.6562 27.1 13.3282 28.288 10.4962 28.288C7.6882 28.288 5.3722 27.088 3.5482 24.688C1.7482 22.264 0.848203 18.856 0.848203 14.464ZM25.0363 28V26.668L28.5283 25.84V3.52L22.3723 7.192V5.464L30.0403 0.963998H32.3083V25.84L35.9803 26.668V28H25.0363Z" fill="#5C5C5C"/>
</svg>
