<svg width="41" height="29" viewBox="0 0 41 29" fill="none" xmlns="http://www.w3.org/2000/svg">
<path d="M10.2814 2.116C8.50536 2.116 7.12536 3.136 6.14136 5.176C5.15736 7.192 4.66536 10.18 4.66536 14.14C4.66536 22.636 6.54936 26.884 10.3174 26.884C12.1414 26.884 13.5454 25.864 14.5294 23.824C15.5374 21.76 16.0414 18.712 16.0414 14.68C16.0414 6.304 14.1214 2.116 10.2814 2.116ZM0.633359 14.464C0.633359 10.048 1.52136 6.664 3.29736 4.312C5.09736 1.936 7.43736 0.747999 10.3174 0.747999C13.1974 0.747999 15.5254 1.936 17.3014 4.312C19.1014 6.688 20.0014 10.096 20.0014 14.536C20.0014 18.952 19.0894 22.348 17.2654 24.724C15.4414 27.1 13.1134 28.288 10.2814 28.288C7.47336 28.288 5.15736 27.088 3.33336 24.688C1.53336 22.264 0.633359 18.856 0.633359 14.464ZM40.9233 24.796V28H23.7513C23.6553 27.64 23.6073 27.196 23.6073 26.668C23.6073 24.364 25.1673 21.76 28.2873 18.856C29.5833 17.632 30.8793 16.408 32.1753 15.184C33.4713 13.96 34.5753 12.616 35.4873 11.152C36.3993 9.688 36.8553 8.272 36.8553 6.904C36.8553 5.512 36.4233 4.348 35.5593 3.412C34.7193 2.452 33.4953 1.972 31.8873 1.972C30.2793 1.972 28.9353 2.548 27.8553 3.7L26.0913 8.452H24.2553V3.7C25.1193 2.692 26.2593 1.924 27.6753 1.396C29.0913 0.843999 30.5793 0.567999 32.1393 0.567999C34.5393 0.567999 36.5073 1.24 38.0433 2.584C39.6033 3.904 40.3833 5.488 40.3833 7.336C40.3833 8.68 39.9273 10.012 39.0153 11.332C38.1273 12.628 37.0233 13.816 35.7033 14.896C34.4073 15.952 33.0993 16.996 31.7793 18.028C28.5633 20.548 26.8233 22.804 26.5593 24.796H40.9233Z" fill="#5C5C5C"/>
</svg>
