<svg width="44" height="29" viewBox="0 0 44 29" fill="none" xmlns="http://www.w3.org/2000/svg">
<path d="M10.4825 2.116C8.70653 2.116 7.32653 3.136 6.34253 5.176C5.35853 7.192 4.86653 10.18 4.86653 14.14C4.86653 22.636 6.75053 26.884 10.5185 26.884C12.3425 26.884 13.7465 25.864 14.7305 23.824C15.7385 21.76 16.2425 18.712 16.2425 14.68C16.2425 6.304 14.3225 2.116 10.4825 2.116ZM0.834531 14.464C0.834531 10.048 1.72253 6.664 3.49853 4.312C5.29853 1.936 7.63853 0.747999 10.5185 0.747999C13.3985 0.747999 15.7265 1.936 17.5025 4.312C19.3025 6.688 20.2025 10.096 20.2025 14.536C20.2025 18.952 19.2905 22.348 17.4665 24.724C15.6425 27.1 13.3145 28.288 10.4825 28.288C7.67453 28.288 5.35853 27.088 3.53453 24.688C1.73453 22.264 0.834531 18.856 0.834531 14.464ZM32.0741 28V26.668L35.5301 25.876V20.944H23.1461V18.388L36.4661 0.567999H39.1301V18.388H43.1621V20.944H39.1301V25.804L43.0181 26.668V28H32.0741ZM35.5301 18.388V4.24L24.9101 18.388H35.5301Z" fill="#5C5C5C"/>
</svg>
