<svg width="41" height="29" viewBox="0 0 41 29" fill="none" xmlns="http://www.w3.org/2000/svg">
<path d="M10.4845 2.116C8.70849 2.116 7.32848 3.136 6.34448 5.176C5.36048 7.192 4.86848 10.18 4.86848 14.14C4.86848 22.636 6.75248 26.884 10.5205 26.884C12.3445 26.884 13.7485 25.864 14.7325 23.824C15.7405 21.76 16.2445 18.712 16.2445 14.68C16.2445 6.304 14.3245 2.116 10.4845 2.116ZM0.836484 14.464C0.836484 10.048 1.72448 6.664 3.50048 4.312C5.30048 1.936 7.64048 0.747999 10.5205 0.747999C13.4005 0.747999 15.7285 1.936 17.5045 4.312C19.3045 6.688 20.2045 10.096 20.2045 14.536C20.2045 18.952 19.2925 22.348 17.4685 24.724C15.6445 27.1 13.3165 28.288 10.4845 28.288C7.67649 28.288 5.36048 27.088 3.53648 24.688C1.73648 22.264 0.836484 18.856 0.836484 14.464ZM32.5944 10.18C34.7304 10.18 36.5664 11.044 38.1024 12.772C39.6624 14.5 40.4424 16.636 40.4424 19.18C40.4424 21.7 39.6864 23.872 38.1744 25.696C36.6624 27.496 34.3224 28.396 31.1544 28.396C29.6184 28.396 28.1904 28.156 26.8704 27.676C25.5504 27.172 24.5304 26.488 23.8104 25.624V20.62H25.6464L27.1584 25.516C28.3104 26.404 29.6544 26.848 31.1904 26.848C32.7264 26.848 34.0344 26.176 35.1144 24.832C36.1944 23.464 36.7344 21.748 36.7344 19.684C36.7344 17.596 36.1704 15.88 35.0424 14.536C33.9144 13.168 32.5944 12.484 31.0824 12.484C29.0424 12.484 27.4224 13.72 26.2224 16.192H23.9904L25.7184 0.999998H38.3904V4.024H26.9784L25.7904 14.716C26.5344 13.06 27.5184 11.896 28.7424 11.224C29.9904 10.528 31.2744 10.18 32.5944 10.18Z" fill="#5C5C5C"/>
</svg>
