<svg width="42" height="29" viewBox="0 0 42 29" fill="none" xmlns="http://www.w3.org/2000/svg">
<path d="M10.2814 2.116C8.50536 2.116 7.12536 3.136 6.14136 5.176C5.15736 7.192 4.66536 10.18 4.66536 14.14C4.66536 22.636 6.54936 26.884 10.3174 26.884C12.1414 26.884 13.5454 25.864 14.5294 23.824C15.5374 21.76 16.0414 18.712 16.0414 14.68C16.0414 6.304 14.1214 2.116 10.2814 2.116ZM0.633359 14.464C0.633359 10.048 1.52136 6.664 3.29736 4.312C5.09736 1.936 7.43736 0.747999 10.3174 0.747999C13.1974 0.747999 15.5254 1.936 17.3014 4.312C19.1014 6.688 20.0014 10.096 20.0014 14.536C20.0014 18.952 19.0894 22.348 17.2654 24.724C15.4414 27.1 13.1134 28.288 10.2814 28.288C7.47336 28.288 5.15736 27.088 3.33336 24.688C1.53336 22.264 0.633359 18.856 0.633359 14.464ZM34.1193 10.216C36.5673 10.216 38.4873 11.128 39.8793 12.952C41.2953 14.752 42.0033 16.864 42.0033 19.288C42.0033 21.688 41.2353 23.8 39.6993 25.624C38.1873 27.424 36.0513 28.324 33.2913 28.324C31.1553 28.324 29.3433 27.7 27.8553 26.452C25.0233 24.1 23.6073 20.476 23.6073 15.58C23.6073 11.188 24.5793 7.588 26.5233 4.78C28.4913 1.948 30.9513 0.532 33.9033 0.532C36.1353 0.532 38.3793 1.384 40.6353 3.088V8.416H38.7993L37.3233 3.124C35.8353 2.38 34.4793 2.008 33.2553 2.008C29.4633 2.008 27.5073 6.244 27.3873 14.716C28.7553 11.716 30.9993 10.216 34.1193 10.216ZM27.4233 19.54V19.828C27.4233 22.06 27.9393 23.776 28.9713 24.976C30.0033 26.152 31.3113 26.74 32.8953 26.74C34.5033 26.74 35.7873 26.068 36.7473 24.724C37.7073 23.356 38.1873 21.712 38.1873 19.792C38.1873 17.848 37.6833 16.132 36.6753 14.644C35.6913 13.156 34.4073 12.412 32.8233 12.412C31.2393 12.412 29.9433 13.036 28.9353 14.284C27.9273 15.508 27.4233 17.26 27.4233 19.54Z" fill="#5C5C5C"/>
</svg>
