<svg width="49" height="49" viewBox="0 0 49 49" fill="none" xmlns="http://www.w3.org/2000/svg">
<path d="M25.9434 4.68163C25.754 4.49186 25.529 4.34131 25.2813 4.2386C25.0336 4.13588 24.7681 4.08301 24.5 4.08301C24.2318 4.08301 23.9663 4.13588 23.7186 4.2386C23.471 4.34131 23.246 4.49186 23.0565 4.68163L4.68151 23.0566C4.39607 23.3422 4.20169 23.7059 4.12295 24.1019C4.04421 24.4979 4.08464 24.9083 4.23913 25.2813C4.39362 25.6544 4.65524 25.9732 4.99091 26.1975C5.32658 26.4219 5.72123 26.5417 6.12497 26.5418H8.16664V40.8334C8.16664 43.0854 9.99801 44.9168 12.25 44.9168H36.75C39.0019 44.9168 40.8333 43.0854 40.8333 40.8334V26.5418H42.875C43.2791 26.5426 43.6745 26.4234 44.0108 26.1993C44.3471 25.9751 44.6092 25.656 44.7639 25.2826C44.9185 24.9092 44.9588 24.4982 44.8795 24.1019C44.8001 23.7056 44.6049 23.3418 44.3184 23.0566L25.9434 4.68163ZM36.752 40.8334H12.25V21.262L24.5 9.012L36.75 21.262V30.6251L36.752 40.8334Z" fill="white"/>
<path d="M26.5416 20.4167H22.4583V26.5417H16.3333V30.6251H22.4583V36.7501H26.5416V30.6251H32.6666V26.5417H26.5416V20.4167Z" fill="white"/>
</svg>
