<svg width="49" height="49" viewBox="0 0 49 49" fill="none" xmlns="http://www.w3.org/2000/svg">
<path d="M7.65625 20.2891V42.875C7.65625 43.2811 7.81758 43.6706 8.10474 43.9578C8.39191 44.2449 8.78139 44.4062 9.1875 44.4062H18.375V31.3906C18.375 30.7815 18.617 30.1972 19.0477 29.7665C19.4785 29.3357 20.0627 29.0938 20.6719 29.0938H28.3281C28.9373 29.0938 29.5215 29.3357 29.9523 29.7665C30.383 30.1972 30.625 30.7815 30.625 31.3906V44.4062H39.8125C40.2186 44.4062 40.6081 44.2449 40.8953 43.9578C41.1824 43.6706 41.3438 43.2811 41.3438 42.875V20.2891" stroke="white" stroke-width="3.0625" stroke-linecap="round" stroke-linejoin="round"/>
<path d="M45.9375 24.5L25.5422 4.9766C25.0637 4.47129 23.9449 4.46555 23.4578 4.9766L3.0625 24.5M38.2812 17.1309V6.12504H33.6875V12.7286" stroke="white" stroke-width="3.0625" stroke-linecap="round" stroke-linejoin="round"/>
</svg>
