<svg width="49" height="49" viewBox="0 0 49 49" fill="none" xmlns="http://www.w3.org/2000/svg">
<path d="M42.875 6.125H6.12502C5.04205 6.125 4.00344 6.55521 3.23767 7.32098C2.47189 8.08675 2.04169 9.12537 2.04169 10.2083V16.3333H6.12502V10.2083H42.875V38.7917H28.5834V42.875H42.875C43.958 42.875 44.9966 42.4448 45.7624 41.679C46.5281 40.9132 46.9584 39.8746 46.9584 38.7917V10.2083C46.9584 9.12537 46.5281 8.08675 45.7624 7.32098C44.9966 6.55521 43.958 6.125 42.875 6.125ZM2.04169 36.75V42.875H8.16669C8.16669 41.2505 7.52138 39.6926 6.37272 38.544C5.22406 37.3953 3.66614 36.75 2.04169 36.75ZM2.04169 28.5833V32.6667C3.38226 32.6667 4.70971 32.9307 5.94825 33.4437C7.18678 33.9567 8.31214 34.7087 9.26007 35.6566C10.208 36.6046 10.9599 37.7299 11.473 38.9684C11.986 40.207 12.25 41.5344 12.25 42.875H16.3334C16.3334 39.0846 14.8276 35.4495 12.1474 32.7693C9.46721 30.0891 5.83207 28.5833 2.04169 28.5833ZM2.04169 20.4167V24.5C4.45473 24.5 6.84414 24.9753 9.0735 25.8987C11.3029 26.8221 13.3285 28.1756 15.0348 29.8819C16.7411 31.5882 18.0945 33.6138 19.018 35.8432C19.9414 38.0725 20.4167 40.462 20.4167 42.875H24.5C24.5 30.4617 14.4346 20.4167 2.04169 20.4167ZM22.4584 22.6421V26.7254L29.6042 30.625L36.75 26.7254V22.6421L29.6042 26.5417L22.4584 22.6421ZM29.6042 12.25L18.375 18.375L29.6042 24.5L40.8334 18.375L29.6042 12.25Z" fill="white"/>
</svg>
