<svg width="41" height="29" viewBox="0 0 41 29" fill="none" xmlns="http://www.w3.org/2000/svg">
<path d="M10.1153 2.116C8.33934 2.116 6.95934 3.136 5.97534 5.176C4.99134 7.192 4.49934 10.18 4.49934 14.14C4.49934 22.636 6.38334 26.884 10.1513 26.884C11.9753 26.884 13.3793 25.864 14.3633 23.824C15.3713 21.76 15.8753 18.712 15.8753 14.68C15.8753 6.304 13.9553 2.116 10.1153 2.116ZM0.467344 14.464C0.467344 10.048 1.35534 6.664 3.13134 4.312C4.93134 1.936 7.27134 0.747999 10.1513 0.747999C13.0313 0.747999 15.3593 1.936 17.1353 4.312C18.9353 6.688 19.8353 10.096 19.8353 14.536C19.8353 18.952 18.9233 22.348 17.0993 24.724C15.2753 27.1 12.9473 28.288 10.1153 28.288C7.30734 28.288 4.99134 27.088 3.16734 24.688C1.36734 22.264 0.467344 18.856 0.467344 14.464ZM33.1973 12.088C35.6933 12.352 37.5893 13.192 38.8853 14.608C40.1813 16.024 40.8293 17.968 40.8293 20.44C40.8293 22.912 39.8933 24.88 38.0213 26.344C36.1733 27.808 33.9413 28.54 31.3253 28.54C28.1813 28.54 25.5533 27.52 23.4413 25.48V20.548H25.2773L27.0053 25.372C28.4693 26.668 30.0053 27.316 31.6133 27.316C33.2213 27.316 34.5293 26.728 35.5373 25.552C36.5693 24.352 37.1093 22.588 37.1573 20.26C37.0133 17.74 36.4253 15.94 35.3933 14.86C34.3853 13.756 32.9573 13.204 31.1093 13.204H28.7693L36.0413 2.62H26.7173L25.3493 8.452H23.5133V0.999998H40.1813V2.296L33.1973 12.088Z" fill="#E31D24"/>
</svg>
