<svg width="167" height="19" viewBox="0 0 167 19" fill="none" xmlns="http://www.w3.org/2000/svg">
<path d="M6.92291 10.92H3.80291V18H0.730906V1.2H3.80291V8.232H7.01891L11.8429 1.2H15.1549L9.41891 9.336L15.3709 18H11.8429L6.92291 10.92ZM32.2392 1.2V18H29.1672V3.84H22.5432L22.3992 8.04C22.3192 10.392 22.1272 12.304 21.8232 13.776C21.5192 15.232 21.0312 16.344 20.3592 17.112C19.6872 17.864 18.7592 18.24 17.5752 18.24C17.1592 18.24 16.5912 18.16 15.8712 18L16.0872 15.288C16.2952 15.352 16.5352 15.384 16.8072 15.384C17.7832 15.384 18.4712 14.808 18.8712 13.656C19.2872 12.488 19.5432 10.656 19.6392 8.16L19.8792 1.2H32.2392ZM36.9893 1.2H40.0613V13.128L49.0853 1.2H51.9893V18H48.9173V6.096L39.8933 18H36.9893V1.2ZM71.6277 1.2V18H68.5077V10.8H59.8197V18H56.6997V1.2H59.8197V8.136H68.5077V1.2H71.6277ZM76.3643 1.2H79.4363V13.128L88.4603 1.2H91.3643V18H88.2923V6.096L79.2683 18H76.3643V1.2ZM102.267 10.92H99.1467V18H96.0747V1.2H99.1467V8.232H102.363L107.187 1.2H110.499L104.763 9.336L110.715 18H107.187L102.267 10.92ZM123.687 14.112H115.287L113.631 18H110.415L117.975 1.2H121.047L128.631 18H125.367L123.687 14.112ZM122.655 11.664L119.487 4.32L116.343 11.664H122.655Z" fill="#478ECC"/>
<path d="M129.707 10.08H136.307V12.576H129.707V10.08Z" fill="#70B2E2"/>
<path d="M145.802 18.24C144.458 18.24 143.258 17.904 142.202 17.232C141.146 16.544 140.314 15.552 139.706 14.256C139.098 12.944 138.794 11.392 138.794 9.6C138.794 7.808 139.098 6.264 139.706 4.968C140.314 3.656 141.146 2.664 142.202 1.992C143.258 1.304 144.458 0.959999 145.802 0.959999C147.146 0.959999 148.346 1.304 149.402 1.992C150.474 2.664 151.314 3.656 151.922 4.968C152.53 6.264 152.834 7.808 152.834 9.6C152.834 11.392 152.53 12.944 151.922 14.256C151.314 15.552 150.474 16.544 149.402 17.232C148.346 17.904 147.146 18.24 145.802 18.24ZM145.802 15.528C147.002 15.528 147.946 15.032 148.634 14.04C149.338 13.048 149.69 11.568 149.69 9.6C149.69 7.632 149.338 6.152 148.634 5.16C147.946 4.168 147.002 3.672 145.802 3.672C144.618 3.672 143.674 4.168 142.97 5.16C142.282 6.152 141.938 7.632 141.938 9.6C141.938 11.568 142.282 13.048 142.97 14.04C143.674 15.032 144.618 15.528 145.802 15.528ZM161.86 8.136C163.412 8.328 164.596 8.856 165.412 9.72C166.228 10.584 166.636 11.664 166.636 12.96C166.636 13.936 166.388 14.824 165.892 15.624C165.396 16.424 164.644 17.064 163.636 17.544C162.644 18.008 161.428 18.24 159.988 18.24C158.788 18.24 157.628 18.072 156.508 17.736C155.404 17.384 154.46 16.904 153.676 16.296L155.02 13.872C155.628 14.384 156.364 14.792 157.228 15.096C158.108 15.384 159.012 15.528 159.94 15.528C161.044 15.528 161.908 15.304 162.532 14.856C163.172 14.392 163.492 13.768 163.492 12.984C163.492 12.2 163.188 11.592 162.58 11.16C161.988 10.712 161.076 10.488 159.844 10.488H158.308V8.352L162.124 3.816H154.492V1.2H165.94V3.288L161.86 8.136Z" fill="#F04438"/>
</svg>
