<svg width="17" height="29" viewBox="0 0 17 29" fill="none" xmlns="http://www.w3.org/2000/svg">
<path d="M16.6192 13.3835L2.93511 0.587898C2.70679 0.374289 2.40344 0.255126 2.08799 0.255126C1.77254 0.255126 1.4692 0.374289 1.24087 0.587898L1.22614 0.602357C1.11507 0.705911 1.02663 0.830557 0.966188 0.968714C0.905752 1.10687 0.874584 1.25565 0.874584 1.406C0.874584 1.55635 0.905752 1.70513 0.966188 1.84329C1.02663 1.98144 1.11507 2.10609 1.22614 2.20964L14.1122 14.2583L1.22614 26.3021C1.11507 26.4056 1.02662 26.5303 0.966187 26.6684C0.905751 26.8066 0.874583 26.9554 0.874583 27.1057C0.874583 27.2561 0.905751 27.4049 0.966187 27.543C1.02662 27.6812 1.11507 27.8058 1.22614 27.9094L1.24087 27.9238C1.4692 28.1374 1.77254 28.2566 2.08799 28.2566C2.40344 28.2566 2.70679 28.1374 2.93511 27.9238L16.6192 15.1282C16.7395 15.0157 16.8353 14.8803 16.9008 14.7304C16.9662 14.5804 17 14.419 17 14.2559C17 14.0927 16.9662 13.9313 16.9008 13.7814C16.8353 13.6314 16.7395 13.4961 16.6192 13.3835Z" fill="black"/>
</svg>
