<svg width="70" height="70" viewBox="0 0 70 70" fill="none" xmlns="http://www.w3.org/2000/svg">
<g clip-path="url(#clip0_143_205)">
<path fill-rule="evenodd" clip-rule="evenodd" d="M16.3677 53.3594C15.1946 54.0781 14.3132 55.1882 13.8793 56.4937C13.4454 57.7992 13.4868 59.2161 13.9963 60.494C14.5058 61.7719 15.4506 62.8286 16.6637 63.4775C17.8768 64.1263 19.2802 64.3255 20.626 64.0399C21.9717 63.7542 23.1732 63.0022 24.0182 61.9165C24.8632 60.8308 25.2973 59.4815 25.2438 58.1068C25.1903 56.7321 24.6526 55.4205 23.7258 54.4038C22.799 53.3871 21.5427 52.7307 20.1788 52.5506C20.106 52.2896 20.0392 52.0271 19.9785 51.7631C19.7127 50.5618 19.505 49.3483 19.3563 48.1269C19.1957 46.8925 19.1048 45.65 19.0841 44.4053C19.0801 44.0634 19.0898 43.7216 19.1133 43.3806C19.8599 43.1667 20.6105 42.9722 21.3591 42.8031C22.2166 42.6086 22.726 43.6197 23.1363 44.4403L23.3035 44.7689H46.1488C46.5941 43.925 47.6033 42.5794 48.5813 42.8031C49.6235 43.0403 50.6716 43.3222 51.7099 43.645L51.7041 43.6469C51.7002 43.6431 51.7002 43.6431 51.7041 43.6508C51.7119 43.6781 51.7547 43.8064 51.7974 44.0786C51.846 44.3936 51.8791 44.8019 51.8947 45.2939C51.9219 46.2739 51.8655 47.4658 51.7508 48.6675C51.6341 49.8672 51.461 51.0281 51.2666 51.9439C51.2238 52.1481 51.181 52.3328 51.1383 52.5H48.5813C48.2203 52.5002 47.8665 52.6009 47.5595 52.7908C47.2524 52.9807 47.0044 53.2523 46.843 53.5753L44.8985 57.4642C44.7633 57.7339 44.6927 58.0315 44.6924 58.3333V62.2222C44.6924 62.7379 44.8973 63.2325 45.262 63.5972C45.6266 63.9618 46.1212 64.1667 46.6369 64.1667H50.5258V60.2778H48.5813V58.7922L49.783 56.3889H55.1574L56.3591 58.7922V60.2778H54.4147V64.1667H58.3035C58.8192 64.1667 59.3138 63.9618 59.6785 63.5972C60.0431 63.2325 60.248 62.7379 60.248 62.2222V58.3333C60.2477 58.0315 60.1772 57.7339 60.0419 57.4642L58.0974 53.5753C57.9361 53.2523 57.688 52.9807 57.381 52.7908C57.0739 52.6009 56.7201 52.5002 56.3591 52.5H55.1224C55.3305 51.4636 55.5035 50.2542 55.6202 49.0408C55.7485 47.7303 55.8147 46.3711 55.7816 45.185L55.7797 45.1306C63.5341 48.4069 69.9702 53.795 69.9702 59.4417V70H-0.0297852V59.4417C-0.0297852 53.5461 6.98966 47.9306 15.1972 44.7086C15.2185 45.9181 15.3333 47.285 15.4985 48.6092C15.6774 50.0383 15.9205 51.4597 16.1888 52.6303C16.2472 52.8811 16.3055 53.1242 16.3677 53.3594ZM19.4147 60.3069C20.4608 60.3069 21.3591 59.4514 21.3591 58.3333C21.3591 57.2172 20.4608 56.3597 19.4147 56.3597C18.3685 56.3597 17.4702 57.2153 17.4702 58.3333C17.4702 59.4494 18.3685 60.3069 19.4147 60.3069ZM34.9702 35C39.0958 35 43.0524 33.3611 45.9697 30.4439C48.8869 27.5267 50.5258 23.57 50.5258 19.4444C50.5258 15.3189 48.8869 11.3622 45.9697 8.445C43.0524 5.52777 39.0958 3.88889 34.9702 3.88889C30.8446 3.88889 26.888 5.52777 23.9708 8.445C21.0535 11.3622 19.4147 15.3189 19.4147 19.4444C19.4147 23.57 21.0535 27.5267 23.9708 30.4439C26.888 33.3611 30.8446 35 34.9702 35ZM34.9702 38.8889C45.7094 38.8889 54.4147 30.1836 54.4147 19.4444C54.4147 8.70528 45.7094 0 34.9702 0C24.231 0 15.5258 8.70528 15.5258 19.4444C15.5258 30.1836 24.231 38.8889 34.9702 38.8889Z" fill="#0081EC"/>
</g>
<defs>
<clipPath id="clip0_143_205">
<rect width="70" height="70" fill="white"/>
</clipPath>
</defs>
</svg>
