<svg width="17" height="28" viewBox="0 0 17 28" fill="none" xmlns="http://www.w3.org/2000/svg">
<path d="M0.380652 13.2333L14.0581 0.584091C14.2863 0.372927 14.5895 0.255128 14.9048 0.255128C15.2201 0.255128 15.5233 0.372927 15.7515 0.584091L15.7662 0.598384C15.8773 0.700753 15.9657 0.823972 16.0261 0.960548C16.0865 1.09712 16.1176 1.2442 16.1176 1.39283C16.1176 1.54146 16.0865 1.68853 16.0261 1.82511C15.9657 1.96169 15.8773 2.0849 15.7662 2.18727L2.88642 14.098L15.7662 26.0039C15.8773 26.1063 15.9657 26.2295 16.0261 26.3661C16.0865 26.5027 16.1176 26.6498 16.1176 26.7984C16.1176 26.947 16.0865 27.0941 16.0261 27.2307C15.9657 27.3672 15.8773 27.4905 15.7662 27.5928L15.7515 27.6071C15.5233 27.8183 15.2201 27.9361 14.9048 27.9361C14.5895 27.9361 14.2863 27.8183 14.0581 27.6071L0.380652 14.9579C0.260364 14.8467 0.164602 14.7129 0.0991706 14.5647C0.0337389 14.4165 -3.37004e-07 14.2569 -3.33123e-07 14.0956C-3.29242e-07 13.9343 0.0337389 13.7748 0.0991707 13.6265C0.164602 13.4783 0.260364 13.3445 0.380652 13.2333Z" fill="black"/>
</svg>
